<?xml version="1.0" encoding="utf-8"?>
<!-- Generator: Adobe Illustrator 26.0.1, SVG Export Plug-In . SVG Version: 6.00 Build 0)  -->
<svg version="1.1" id="Layer_1" xmlns="http://www.w3.org/2000/svg" xmlns:xlink="http://www.w3.org/1999/xlink" x="0px" y="0px"
	 viewBox="0 0 204.7 104.6" style="enable-background:new 0 0 204.7 104.6;" xml:space="preserve">
<style type="text/css">
	.st0{fill:#000000;}
</style>
<g id="Layer_2_00000052083448841440726540000000189170569607133838_">
	<g id="Layer_1-2">
		<path class="st0" d="M131.5,48.1c0,0.5-0.4,0.9-0.9,0.9c0,0-0.1,0-0.1,0l-4-0.3c-0.6-0.1-1-0.5-1-1.1v-3.9c0-3.1,2.1-4.9,3-4.8
			c0.9,0.1,3,2,3,5.3V48.1z M106,18.8c0,0.6-0.4,1-1,1h-4c-0.6,0-1-0.4-1-1v-3.9c0-3.1,2.1-5.1,3-5.1s3,1.8,3,5.1V18.8z M80.4,35.1
			c0,0.6-0.4,1-1,1.1l-4,0.3c-0.5,0.1-0.9-0.3-1-0.8c0,0,0-0.1,0-0.1v-3.9c0-3.3,2.1-5.3,3-5.3s3,1.7,3,4.8V35.1z M137.8,27.1v-8.6
			c0-0.3-0.2-0.6-0.6-0.7l-1.7-0.4c-0.4-0.1-0.8,0.2-0.8,0.5c0,0.1,0,0.1,0,0.2v2.5c0,0.4-0.3,0.7-0.7,0.7c0,0-0.1,0-0.1,0
			c-0.8-0.1-1.7-0.3-2.5-0.4c-0.4-0.1-0.6-0.4-0.6-0.7c0-1,0-2.1,0-3.1c0-0.4-0.2-0.7-0.6-0.7l-2.5-0.4c-0.4-0.1-0.8,0.2-0.8,0.6
			c0,0,0,0.1,0,0.1v2.7c0,0.4-0.3,0.7-0.7,0.7c0,0-0.1,0-0.1,0l-1.9-0.3c-0.4,0-0.6-0.3-0.6-0.7c0-1.1,0-2.1,0-3.2
			c0-0.4-0.3-0.7-0.7-0.7c-0.7-0.1-1.6-0.1-2.3-0.2c-0.4,0-0.7,0.2-0.8,0.6c0,0,0,0,0,0.1v11.6c0,0.4-0.3,0.7-0.7,0.7c0,0,0,0-0.1,0
			l-1.1-0.1c-0.4,0-0.7-0.3-0.7-0.7l0.1-25.9c0-0.4-0.3-0.7-0.7-0.7c-0.9-0.1-1.7-0.2-2.6-0.3c-0.4,0-0.8,0.3-0.8,0.7c0,0,0,0,0,0.1
			v3c0,0.4-0.3,0.7-0.7,0.7c0,0,0,0,0,0c-0.9-0.1-1.7-0.1-2.6-0.2c-0.4,0-0.7-0.3-0.7-0.7V0.8c0-0.4-0.3-0.7-0.7-0.7
			c-0.9,0-1.7-0.1-2.6-0.1c-0.4,0-0.7,0.3-0.7,0.7c0,0,0,0,0,0v3.1c0,0.4-0.3,0.7-0.7,0.7l0,0h-2.6c-0.4,0-0.7-0.3-0.7-0.7
			c0,0,0,0,0,0c0-1,0-2.1,0-3.1c0-0.4-0.3-0.7-0.7-0.7c0,0,0,0,0,0l-2.6,0.1c-0.4,0-0.7,0.3-0.7,0.7c0,0,0,0,0,0V4
			c0,0.4-0.3,0.7-0.7,0.7l-2.6,0.2c-0.4,0-0.7-0.3-0.7-0.7c0,0,0,0,0,0c0-1,0-2,0-3c0-0.4-0.3-0.7-0.7-0.7c0,0,0,0,0,0l-2.6,0.2
			c-0.4,0-0.6,0.4-0.6,0.7c0,8.2,0,22.8,0,26.1c0,0.4-0.3,0.7-0.7,0.7l-1.2,0.1c-0.4,0-0.7-0.3-0.8-0.6c0,0,0,0,0-0.1
			c0-2.2,0-8.5,0-11.8c0-0.4-0.3-0.7-0.7-0.7c0,0,0,0-0.1,0l-2.3,0.2c-0.4,0-0.6,0.4-0.6,0.7c0,1.1,0,2.1,0,3.2
			c0,0.4-0.3,0.7-0.6,0.7c-0.7,0.1-1.3,0.2-1.9,0.3c-0.4,0.1-0.8-0.2-0.8-0.6c0,0,0-0.1,0-0.1v-2.7c0-0.4-0.3-0.7-0.7-0.7
			c0,0-0.1,0-0.1,0l-2.5,0.4c-0.3,0.1-0.6,0.4-0.6,0.7c0,1,0,2.1,0,3.1c0,0.4-0.3,0.7-0.6,0.7l-2.5,0.4c-0.4,0.1-0.8-0.2-0.8-0.6
			c0,0,0-0.1,0-0.1v-2.5c0-0.4-0.3-0.7-0.7-0.7c0,0-0.1,0-0.1,0c-0.6,0.1-1.2,0.2-1.9,0.4c-0.3,0.1-0.6,0.4-0.6,0.7v34.3
			c0,0.4,0.3,0.7,0.7,0.7c0,0,0,0,0,0c9.3-0.1,18.4,1.6,27,5.1c0.4,0.2,0.8,0,0.9-0.4c0-0.1,0.1-0.2,0.1-0.3c0-1.5,0-4.1,0-5.4
			c0-6.9,4.1-9,5.7-9.6c0.4-0.1,0.8-0.1,1.2,0c1.5,0.5,5.8,2.6,5.8,9.6c0,1.4,0,4,0,5.4c0,0.4,0.3,0.7,0.7,0.7c0.1,0,0.2,0,0.3-0.1
			c8.5-3.6,17.6-5.3,26.8-5.1c0.4,0,0.8-0.3,0.8-0.7c0,0,0,0,0-0.1C137.8,49.1,137.8,35.2,137.8,27.1"/>
		<path class="st0" d="M14.7,100.2c-0.2-0.2-0.5-0.2-0.6,0c-1.2,1.1-2.8,1.7-4.5,1.7c-3.8,0-6.8-3.1-6.8-6.8c0-3.8,3.1-6.8,6.8-6.8
			c1.7,0,3.3,0.7,4.5,1.8c0.2,0.2,0.5,0.2,0.7,0l1.2-1.2c0.2-0.2,0.2-0.5,0.1-0.7c0,0,0,0-0.1-0.1c-1.7-1.6-4-2.5-6.4-2.4
			c-5.2,0-9.5,4.2-9.5,9.5c0,5.2,4.2,9.5,9.5,9.5c0,0,0,0,0,0c2.4,0,4.7-0.9,6.4-2.6c0.2-0.2,0.2-0.5,0-0.7c0,0,0,0,0,0L14.7,100.2z
			"/>
		<path class="st0" d="M26.2,98.1l3.2-7.2h0.1l3.2,7.2H26.2z M30.1,86c-0.1-0.2-0.3-0.3-0.5-0.3h-0.3c-0.2,0-0.3,0.1-0.4,0.3
			l-8.1,17.7c-0.1,0.2,0,0.5,0.2,0.6c0.1,0,0.2,0.1,0.3,0.1H23c0.3,0,0.5-0.2,0.6-0.4c0.5-1.2,1.1-2.4,1.6-3.6h8.6l1.6,3.6
			c0.1,0.2,0.3,0.4,0.6,0.4h1.7c0.3,0,0.5-0.2,0.5-0.4c0-0.1,0-0.2-0.1-0.3L30.1,86z"/>
		<path class="st0" d="M50.5,95.1h-3.6v-6.5h3.6c1.8-0.1,3.3,1.3,3.3,3.1c0,0,0,0,0,0C53.8,93.6,52.3,95.1,50.5,95.1
			C50.5,95.1,50.5,95.1,50.5,95.1 M50.6,86h-6c-0.3,0-0.5,0.2-0.5,0.5c0,0,0,0,0,0v17.4c0,0.3,0.2,0.5,0.5,0.5h1.7
			c0.3,0,0.5-0.2,0.5-0.5v-6.2h3.8c3.2,0.1,6-2.4,6.1-5.6c0.1-3.2-2.4-6-5.6-6.1C51,86,50.8,86,50.6,86"/>
		<path class="st0" d="M73.8,86H63.3c-0.3,0-0.5,0.2-0.5,0.5c0,0,0,0,0,0v17.4c0,0.3,0.2,0.5,0.5,0.5h10.5c0.3,0,0.5-0.2,0.5-0.5
			v-1.4c0-0.3-0.2-0.5-0.5-0.5h-8.3v-5.7h7c0.3,0,0.5-0.2,0.5-0.5v-1.5c0-0.3-0.2-0.5-0.5-0.5h-7v-5.4h8.3c0.3,0,0.5-0.2,0.5-0.5
			c0,0,0,0,0,0v-1.5C74.3,86.2,74.1,86,73.8,86C73.8,86,73.8,86,73.8,86"/>
		<path class="st0" d="M88.7,94.9h-4.7v-6.4h4.7c1.7,0,3.2,1.4,3.2,3.1C91.9,93.4,90.5,94.9,88.7,94.9 M94.7,91.6
			c0-3.1-2.6-5.6-5.7-5.6h-7.2c-0.3,0-0.5,0.2-0.5,0.5c0,0,0,0,0,0v17.4c0,0.3,0.2,0.5,0.5,0.5h1.7c0.3,0,0.5-0.2,0.5-0.5v-6.7h4
			l3.5,7c0.1,0.1,0.2,0.2,0.4,0.2h2c0.3,0,0.5-0.2,0.5-0.5c0-0.1,0-0.2-0.1-0.3L90.8,97C93,96.2,94.6,94.1,94.7,91.6"/>
		<path class="st0" d="M116.7,86h-1.7c-0.3,0-0.5,0.2-0.5,0.5c0,0,0,0,0,0v12.4l0,0l-11.4-13.2h-0.7c-0.3,0-0.5,0.2-0.5,0.5
			c0,0,0,0,0,0v17.7c0,0.3,0.2,0.5,0.5,0.5h1.7c0.3,0,0.5-0.2,0.5-0.5V91.1l0,0l11.4,13.6h0.7c0.3,0,0.5-0.2,0.5-0.5V86.5
			C117.2,86.2,117,86,116.7,86"/>
		<path class="st0" d="M145.1,86h-1.8c-0.2,0-0.4,0.2-0.5,0.4l-3.1,12.1h-0.1L135.2,86c-0.1-0.2-0.3-0.3-0.4-0.3h-0.5
			c-0.2,0-0.4,0.1-0.4,0.3l-4.3,12.4h-0.1l-3.2-12.1c-0.1-0.2-0.3-0.3-0.5-0.4h-1.8c-0.3,0-0.5,0.2-0.5,0.4c0,0.1,0,0.2,0,0.2
			l5,17.7c0.1,0.2,0.2,0.4,0.5,0.4h0.4c0.2,0,0.4-0.1,0.4-0.3l4.5-13.1h0.1l4.6,13.1c0.1,0.2,0.3,0.3,0.4,0.3h0.4
			c0.2,0,0.4-0.2,0.5-0.4l5-17.7c0.1-0.2,0-0.5-0.2-0.6C145.3,86,145.2,86,145.1,86"/>
		<path class="st0" d="M159.4,94.9h-4.7v-6.4h4.7c1.7,0,3.2,1.4,3.2,3.1C162.6,93.4,161.1,94.9,159.4,94.9 M165.3,91.6
			c0-3.1-2.6-5.6-5.7-5.6c0,0,0,0,0,0h-7.1c-0.3,0-0.5,0.2-0.5,0.5c0,0,0,0,0,0v17.4c0,0.3,0.2,0.5,0.5,0.5h1.7
			c0.3,0,0.5-0.2,0.5-0.5v-6.7h4l3.5,7c0.1,0.1,0.2,0.2,0.4,0.2h2.1c0.3,0,0.5-0.2,0.5-0.5c0-0.1,0-0.2-0.1-0.3l-3.6-6.7
			C163.7,96.2,165.3,94.1,165.3,91.6"/>
		<path class="st0" d="M176,98.1l3.2-7.2h0.1l3.2,7.2H176z M179.9,86c-0.1-0.2-0.3-0.3-0.4-0.3h-0.3c-0.2,0-0.4,0.1-0.4,0.3
			l-8.1,17.7c-0.1,0.2,0,0.5,0.2,0.6c0.1,0,0.2,0.1,0.3,0.1h1.6c0.3,0,0.5-0.2,0.6-0.4c0.5-1.2,1.1-2.4,1.6-3.6h8.6l1.6,3.6
			c0.1,0.2,0.3,0.4,0.6,0.4h1.6c0.3,0,0.5-0.2,0.5-0.4c0-0.1,0-0.2-0.1-0.3L179.9,86z"/>
		<path class="st0" d="M204.2,86h-2c-0.2,0-0.3,0.1-0.4,0.2l-4.8,6.7l-4.8-6.7c-0.1-0.1-0.3-0.2-0.4-0.2h-1.9
			c-0.3,0-0.5,0.2-0.5,0.5c0,0.1,0,0.2,0.1,0.3l6.1,8.8v8.3c0,0.3,0.2,0.5,0.5,0.5h1.7c0.3,0,0.5-0.2,0.5-0.5v-8.4l6.2-8.7
			c0.1-0.2,0.1-0.5-0.1-0.7C204.4,86,204.3,86,204.2,86"/>
		<path class="st0" d="M23.3,79.9c8.2-4.5,17-7.8,26.2-9.8c13.9-3.1,34.3-4.1,52.8,8.1c0.4,0.3,1,0.3,1.4,0
			c18.4-12.2,38.9-11.2,52.8-8.1c9.1,2,18,5.3,26.2,9.8c0.2,0.1,0.4,0.2,0.7,0.2c0.7,0,1.3-0.6,1.3-1.3c0-0.5-0.2-0.9-0.6-1.2
			c-8.4-4.6-17.5-8-26.9-10c-14.2-3.1-35.1-4.3-54.1,8c-19-12.3-39.9-11.2-54.1-8c-9.4,2-18.4,5.4-26.9,10c-0.6,0.4-0.8,1.2-0.5,1.8
			C21.9,80,22.7,80.2,23.3,79.9L23.3,79.9"/>
		<path class="st0" d="M33.8,67.7c0.4-0.2,36.9-16.5,68.5,2.5c0.4,0.3,0.9,0.3,1.3,0c31.6-18.9,68.1-2.6,68.5-2.5
			c0.7,0.2,1.4-0.1,1.7-0.7c0.3-0.7,0-1.4-0.6-1.7c0,0,0,0,0,0c-7.4-3.1-15.1-5.1-23-6.1c-12.3-1.7-30.3-1.5-47.3,8.4
			c-17-9.9-35-10-47.3-8.4c-7.9,1-15.6,3.1-23,6.1c-0.7,0.3-1,1.1-0.7,1.7C32.4,67.7,33.2,68,33.8,67.7"/>
	</g>
</g>
</svg>
